M48
; DRILL file {KiCad (5.1.8)-1} date 12/03/21 10:02:01
; FORMAT={-:-/ absolute / inch / decimal}
; #@! TF.CreationDate,2021-12-03T10:02:01-08:00
; #@! TF.GenerationSoftware,Kicad,Pcbnew,(5.1.8)-1
FMAT,2
INCH
T1C0.0157
T2C0.0197
T3C0.0236
T4C0.0315
T5C0.0320
T6C0.0400
T7C0.0410
T8C0.1201
T9C0.1260
%
G90
G05
T1
X3.25Y-2.6125
X3.25Y-3.475
X3.25Y-3.85
X3.25Y-3.9
X3.25Y-3.95
X3.35Y-2.6125
X3.3875Y-2.325
X3.45Y-2.25
X3.5125Y-2.2875
X3.6Y-4.6125
X3.6875Y-2.2125
X3.7Y-3.05
X3.7Y-3.15
X3.7Y-3.6
X3.7125Y-5.2625
X3.8Y-3.05
X3.85Y-3.6
X3.8875Y-4.2625
X3.9Y-3.35
X4.0Y-3.15
X4.0Y-3.6
X4.0375Y-3.05
X4.0562Y-4.9312
X4.1Y-3.05
X4.1Y-3.15
X4.1Y-4.9125
X4.125Y-2.8
X4.2375Y-4.4027
X4.2375Y-4.4625
X4.2375Y-4.6125
X4.35Y-2.7
X4.3875Y-4.3375
X4.4Y-5.2375
X4.45Y-4.9625
X4.475Y-3.8375
X4.4875Y-3.75
X4.5375Y-5.4625
X4.575Y-3.8375
X4.75Y-3.8375
X4.9375Y-3.8375
X4.9375Y-4.1875
X5.0Y-2.575
X5.0875Y-4.1125
X5.1Y-3.4375
X5.1125Y-4.2625
X5.15Y-4.225
X5.1625Y-4.0875
X5.1875Y-4.3
X5.2Y-3.15
X5.2125Y-3.7875
X5.2125Y-4.3375
X5.2375Y-4.375
X5.2875Y-4.425
X5.325Y-4.1875
X5.35Y-2.6125
X5.3625Y-4.3875
X5.3875Y-5.0125
X5.4Y-5.375
X5.45Y-2.6125
X5.45Y-4.0875
X5.475Y-5.375
X5.4875Y-2.325
X5.525Y-4.2375
X5.525Y-4.5375
X5.5375Y-5.3875
X5.55Y-2.25
X5.55Y-4.0625
X5.5625Y-4.7
X5.575Y-4.5375
X5.6Y-3.05
X5.6Y-3.15
X5.6Y-3.6
X5.6Y-4.0375
X5.6125Y-2.2875
X5.6125Y-4.5125
X5.625Y-4.3125
X5.65Y-4.0125
X5.65Y-4.6125
X5.7Y-3.05
X5.7Y-4.5375
X5.7Y-4.7
X5.7375Y-5.3875
X5.75Y-3.6
X5.7875Y-2.2125
X5.8Y-3.35
X5.8Y-4.65
X5.8Y-4.9375
X5.8875Y-3.9375
X5.8875Y-4.575
X5.9Y-3.15
X5.9Y-3.6
X5.925Y-3.9625
X5.925Y-4.5125
X5.9375Y-5.125
X5.95Y-3.05
X6.0Y-3.05
X6.0Y-3.15
X6.0Y-5.125
X6.025Y-2.8
X6.0375Y-4.3625
X6.05Y-4.5625
X6.05Y-5.475
X6.1Y-4.5625
X6.1Y-5.125
X6.15Y-5.475
X6.2Y-4.6125
X6.2Y-5.125
X6.25Y-5.3375
X6.25Y-5.475
X6.3Y-4.525
X6.3375Y-5.0875
X6.375Y-5.3
X6.4Y-4.6125
X6.4125Y-5.1625
X6.4375Y-2.675
X6.4375Y-3.7
X6.4375Y-3.8
X6.5125Y-5.125
X6.5125Y-5.2
X6.5375Y-3.8375
X6.55Y-4.0875
X6.6125Y-3.8625
X6.65Y-4.2
X6.7Y-4.35
X6.725Y-3.35
X6.7375Y-2.8875
X6.7375Y-3.8125
X6.775Y-5.4
X6.775Y-3.25
X6.775Y-3.3
X6.825Y-5.35
X6.8375Y-3.7875
X6.85Y-4.05
X6.9Y-3.725
X6.9125Y-3.9375
X6.95Y-3.75
X6.95Y-3.825
X6.95Y-4.875
X7.05Y-4.975
X7.25Y-5.475
T2
X8.0205Y-5.425
X8.0482Y-5.3582
X8.0482Y-5.4918
X8.115Y-5.3305
X8.115Y-5.5195
X8.1818Y-5.3582
X8.1818Y-5.4918
X8.2095Y-5.425
X8.0205Y-3.2
X8.0482Y-3.1332
X8.0482Y-3.2668
X8.115Y-3.1055
X8.115Y-3.2945
X8.1818Y-3.1332
X8.1818Y-3.2668
X8.2095Y-3.2
T3
X4.0Y-5.4625
X4.05Y-5.4625
X4.5Y-4.6125
X4.775Y-2.25
X4.775Y-4.7875
X6.725Y-2.8
X6.775Y-2.75
X7.75Y-3.5
T4
X7.9008Y-5.05
X7.9992Y-5.05
X7.4008Y-5.35
X7.4992Y-5.35
X4.8008Y-3.25
X4.8992Y-3.25
X7.9008Y-4.75
X7.9992Y-4.75
X2.9008Y-3.25
X2.9992Y-3.25
T5
X4.6Y-2.85
X4.6Y-3.05
X5.8Y-4.15
X5.8Y-4.75
X5.9Y-4.15
X5.9Y-4.75
X6.0Y-4.15
X6.0Y-4.75
X6.1Y-4.15
X6.1Y-4.75
X6.2Y-4.15
X6.2Y-4.75
X6.3Y-4.15
X6.3Y-4.75
X6.4Y-4.15
X6.4Y-4.75
X6.5Y-4.15
X6.5Y-4.75
X6.6Y-4.15
X6.6Y-4.75
X6.7Y-4.15
X6.7Y-4.75
X6.8Y-4.15
X6.8Y-4.75
X6.9Y-4.15
X6.9Y-4.75
X7.0Y-4.15
X7.0Y-4.75
X7.1Y-4.15
X7.1Y-4.75
X7.4Y-5.15
X7.6Y-5.15
X6.5Y-2.85
X6.5Y-3.05
X7.4Y-5.05
X7.6Y-5.05
X6.5Y-3.15
X6.5Y-3.35
X5.4Y-4.45
X5.4Y-4.65
X6.7Y-2.95
X6.7Y-3.15
X3.0Y-4.6
X3.0Y-4.8
X3.2Y-4.15
X3.2Y-4.45
X3.3Y-4.15
X3.3Y-4.45
X3.4Y-4.15
X3.4Y-4.45
X3.5Y-4.15
X3.5Y-4.45
X3.6Y-4.15
X3.6Y-4.45
X3.7Y-4.15
X3.7Y-4.45
X3.8Y-4.15
X3.8Y-4.45
X3.9Y-4.15
X3.9Y-4.45
X3.2Y-3.05
X3.2Y-3.25
X7.35Y-3.95
X7.35Y-4.05
X7.35Y-4.15
X7.35Y-4.25
X7.35Y-4.35
X7.35Y-4.45
X7.35Y-4.55
X7.35Y-4.65
X7.35Y-4.75
X7.35Y-4.85
X7.65Y-3.95
X7.65Y-4.05
X7.65Y-4.15
X7.65Y-4.25
X7.65Y-4.35
X7.65Y-4.45
X7.65Y-4.55
X7.65Y-4.65
X7.65Y-4.75
X7.65Y-4.85
X7.2Y-2.25
X7.2Y-2.55
X7.5Y-2.25
X7.5Y-2.55
X4.3Y-4.15
X4.3Y-4.45
X4.4Y-4.15
X4.4Y-4.45
X4.5Y-4.15
X4.5Y-4.45
X4.6Y-4.15
X4.6Y-4.45
X4.7Y-4.15
X4.7Y-4.45
X4.8Y-4.15
X4.8Y-4.45
X4.9Y-4.15
X4.9Y-4.45
X5.0Y-4.15
X5.0Y-4.45
X7.85Y-2.05
X8.05Y-2.05
X3.2Y-4.55
X3.2Y-4.85
X3.3Y-4.55
X3.3Y-4.85
X3.4Y-4.55
X3.4Y-4.85
X3.5Y-4.55
X3.5Y-4.85
X3.6Y-4.55
X3.6Y-4.85
X3.7Y-4.55
X3.7Y-4.85
X3.8Y-4.55
X3.8Y-4.85
X3.9Y-4.55
X3.9Y-4.85
X4.3Y-4.55
X4.3Y-4.85
X4.4Y-4.55
X4.4Y-4.85
X4.5Y-4.55
X4.5Y-4.85
X4.6Y-4.55
X4.6Y-4.85
X4.7Y-4.55
X4.7Y-4.85
X4.8Y-4.55
X4.8Y-4.85
X4.9Y-4.55
X4.9Y-4.85
X5.0Y-4.55
X5.0Y-4.85
X5.1Y-4.55
X5.1Y-4.85
X5.2Y-4.55
X5.2Y-4.85
X5.6Y-4.25
X5.6Y-4.85
X5.7Y-4.25
X5.7Y-4.85
X5.8Y-4.25
X5.8Y-4.85
X5.9Y-4.25
X5.9Y-4.85
X6.0Y-4.25
X6.0Y-4.85
X6.1Y-4.25
X6.1Y-4.85
X6.2Y-4.25
X6.2Y-4.85
X6.3Y-4.25
X6.3Y-4.85
X6.4Y-4.25
X6.4Y-4.85
X6.5Y-4.25
X6.5Y-4.85
X6.6Y-4.25
X6.6Y-4.85
X6.7Y-4.25
X6.7Y-4.85
X6.8Y-4.25
X6.8Y-4.85
X6.9Y-4.25
X6.9Y-4.85
X7.0Y-4.25
X7.0Y-4.85
X7.1Y-4.25
X7.1Y-4.85
X3.4Y-2.95
X3.4Y-3.05
X3.4Y-3.15
X3.4Y-3.25
X3.4Y-3.35
X3.4Y-3.45
X3.4Y-3.55
X3.4Y-3.65
X3.4Y-3.75
X3.5Y-2.85
X3.5Y-2.95
X3.5Y-3.05
X3.5Y-3.15
X3.5Y-3.25
X3.5Y-3.35
X3.5Y-3.45
X3.5Y-3.55
X3.5Y-3.65
X3.5Y-3.75
X3.5Y-3.85
X3.6Y-2.85
X3.6Y-2.95
X3.6Y-3.75
X3.6Y-3.85
X3.7Y-2.85
X3.7Y-2.95
X3.7Y-3.75
X3.7Y-3.85
X3.8Y-2.85
X3.8Y-2.95
X3.8Y-3.75
X3.8Y-3.85
X3.9Y-2.85
X3.9Y-2.95
X3.9Y-3.75
X3.9Y-3.85
X4.0Y-2.85
X4.0Y-2.95
X4.0Y-3.75
X4.0Y-3.85
X4.1Y-2.85
X4.1Y-2.95
X4.1Y-3.75
X4.1Y-3.85
X4.2Y-2.85
X4.2Y-2.95
X4.2Y-3.75
X4.2Y-3.85
X4.3Y-2.85
X4.3Y-2.95
X4.3Y-3.05
X4.3Y-3.15
X4.3Y-3.25
X4.3Y-3.35
X4.3Y-3.45
X4.3Y-3.55
X4.3Y-3.65
X4.3Y-3.75
X4.3Y-3.85
X4.4Y-2.95
X4.4Y-3.05
X4.4Y-3.15
X4.4Y-3.25
X4.4Y-3.35
X4.4Y-3.45
X4.4Y-3.55
X4.4Y-3.65
X4.4Y-3.75
X4.6Y-3.15
X4.6Y-3.35
X3.2Y-4.95
X3.3Y-4.95
X3.4Y-4.95
X3.5Y-4.95
X3.6Y-4.95
X3.7Y-4.95
X6.2Y-2.3
X6.3Y-2.3
X6.4Y-2.3
X6.5Y-2.3
X6.6Y-2.3
X6.7Y-2.3
X7.4Y-3.75
X7.6Y-3.75
X7.25Y-2.05
X7.45Y-2.05
X6.9Y-2.95
X6.9Y-3.05
X6.9Y-3.15
X6.9Y-3.25
X6.9Y-3.35
X6.9Y-3.45
X7.0Y-2.85
X7.0Y-2.95
X7.0Y-3.05
X7.0Y-3.15
X7.0Y-3.25
X7.0Y-3.35
X7.0Y-3.45
X7.0Y-3.55
X7.1Y-2.85
X7.1Y-2.95
X7.1Y-3.45
X7.1Y-3.55
X7.2Y-2.85
X7.2Y-2.95
X7.2Y-3.45
X7.2Y-3.55
X7.3Y-2.85
X7.3Y-2.95
X7.3Y-3.45
X7.3Y-3.55
X7.4Y-2.85
X7.4Y-2.95
X7.4Y-3.45
X7.4Y-3.55
X7.5Y-2.85
X7.5Y-2.95
X7.5Y-3.05
X7.5Y-3.15
X7.5Y-3.25
X7.5Y-3.35
X7.5Y-3.45
X7.5Y-3.55
X7.6Y-2.95
X7.6Y-3.05
X7.6Y-3.15
X7.6Y-3.25
X7.6Y-3.35
X7.6Y-3.45
X4.1Y-4.2
X4.1Y-4.4
X7.8Y-2.25
X7.8Y-2.55
X8.1Y-2.25
X8.1Y-2.55
X4.1Y-2.3
X4.2Y-2.3
X4.3Y-2.3
X4.4Y-2.3
X4.5Y-2.3
X4.6Y-2.3
X5.1Y-3.05
X5.1Y-3.25
X4.7Y-4.95
X4.8Y-4.95
X4.9Y-4.95
X5.0Y-4.95
X5.1Y-4.95
X5.2Y-4.95
X3.0Y-4.2
X3.0Y-4.4
X5.3Y-2.95
X5.3Y-3.05
X5.3Y-3.15
X5.3Y-3.25
X5.3Y-3.35
X5.3Y-3.45
X5.3Y-3.55
X5.3Y-3.65
X5.3Y-3.75
X5.4Y-2.85
X5.4Y-2.95
X5.4Y-3.05
X5.4Y-3.15
X5.4Y-3.25
X5.4Y-3.35
X5.4Y-3.45
X5.4Y-3.55
X5.4Y-3.65
X5.4Y-3.75
X5.4Y-3.85
X5.5Y-2.85
X5.5Y-2.95
X5.5Y-3.75
X5.5Y-3.85
X5.6Y-2.85
X5.6Y-2.95
X5.6Y-3.75
X5.6Y-3.85
X5.7Y-2.85
X5.7Y-2.95
X5.7Y-3.75
X5.7Y-3.85
X5.8Y-2.85
X5.8Y-2.95
X5.8Y-3.75
X5.8Y-3.85
X5.9Y-2.85
X5.9Y-2.95
X5.9Y-3.75
X5.9Y-3.85
X6.0Y-2.85
X6.0Y-2.95
X6.0Y-3.75
X6.0Y-3.85
X6.1Y-2.85
X6.1Y-2.95
X6.1Y-3.75
X6.1Y-3.85
X6.2Y-2.85
X6.2Y-2.95
X6.2Y-3.05
X6.2Y-3.15
X6.2Y-3.25
X6.2Y-3.35
X6.2Y-3.45
X6.2Y-3.55
X6.2Y-3.65
X6.2Y-3.75
X6.2Y-3.85
X6.3Y-2.95
X6.3Y-3.05
X6.3Y-3.15
X6.3Y-3.25
X6.3Y-3.35
X6.3Y-3.45
X6.3Y-3.55
X6.3Y-3.65
X6.3Y-3.75
X4.1Y-4.6
X4.1Y-4.8
T6
X3.8Y-5.15
X3.8Y-5.25
X3.9Y-5.15
X3.9Y-5.25
X4.0Y-5.15
X4.0Y-5.25
X4.1Y-5.15
X4.1Y-5.25
X4.2Y-5.15
X4.2Y-5.25
X4.3Y-5.15
X4.3Y-5.25
X3.1Y-2.025
X3.1Y-2.125
X3.2Y-2.025
X3.2Y-2.125
X3.3Y-2.025
X3.3Y-2.125
X3.4Y-2.025
X3.4Y-2.125
X3.5Y-2.025
X3.5Y-2.125
X3.6Y-2.025
X3.6Y-2.125
X3.7Y-2.025
X3.7Y-2.125
X3.8Y-2.025
X3.8Y-2.125
X3.9Y-2.025
X3.9Y-2.125
X4.0Y-2.025
X4.0Y-2.125
X4.1Y-2.025
X4.1Y-2.125
X4.2Y-2.025
X4.2Y-2.125
X4.3Y-2.025
X4.3Y-2.125
X4.4Y-2.025
X4.4Y-2.125
X4.5Y-2.025
X4.5Y-2.125
X4.6Y-2.025
X4.6Y-2.125
X4.7Y-2.025
X4.7Y-2.125
X5.2Y-5.15
X5.2Y-5.25
X5.3Y-5.15
X5.3Y-5.25
X5.4Y-5.15
X5.4Y-5.25
X5.5Y-5.15
X5.5Y-5.25
X5.6Y-5.15
X5.6Y-5.25
X5.7Y-5.15
X5.7Y-5.25
X5.8Y-5.15
X5.8Y-5.25
X3.1Y-2.475
X3.1Y-2.575
X3.2Y-2.475
X3.2Y-2.575
X3.3Y-2.475
X3.3Y-2.575
X3.4Y-2.475
X3.4Y-2.575
X3.5Y-2.475
X3.5Y-2.575
X3.6Y-2.475
X3.6Y-2.575
X3.7Y-2.475
X3.7Y-2.575
X3.8Y-2.475
X3.8Y-2.575
X3.9Y-2.475
X3.9Y-2.575
X4.0Y-2.475
X4.0Y-2.575
X4.1Y-2.475
X4.1Y-2.575
X4.2Y-2.475
X4.2Y-2.575
X4.3Y-2.475
X4.3Y-2.575
X4.4Y-2.475
X4.4Y-2.575
X4.5Y-2.475
X4.5Y-2.575
X4.6Y-2.475
X4.6Y-2.575
X4.7Y-2.475
X4.7Y-2.575
X3.1Y-5.15
X3.1Y-5.25
X3.2Y-5.15
X3.2Y-5.25
X3.3Y-5.15
X3.3Y-5.25
X3.4Y-5.15
X3.4Y-5.25
X3.5Y-5.15
X3.5Y-5.25
X3.6Y-5.15
X3.6Y-5.25
X3.9Y-5.05
X4.0Y-5.05
X4.1Y-5.05
X4.2Y-5.05
X4.3Y-5.05
X3.1Y-2.85
X3.1Y-2.95
X4.8Y-2.85
X4.8Y-2.95
X5.2Y-2.025
X5.2Y-2.125
X5.3Y-2.025
X5.3Y-2.125
X5.4Y-2.025
X5.4Y-2.125
X5.5Y-2.025
X5.5Y-2.125
X5.6Y-2.025
X5.6Y-2.125
X5.7Y-2.025
X5.7Y-2.125
X5.8Y-2.025
X5.8Y-2.125
X5.9Y-2.025
X5.9Y-2.125
X6.0Y-2.025
X6.0Y-2.125
X6.1Y-2.025
X6.1Y-2.125
X6.2Y-2.025
X6.2Y-2.125
X6.3Y-2.025
X6.3Y-2.125
X6.4Y-2.025
X6.4Y-2.125
X6.5Y-2.025
X6.5Y-2.125
X6.6Y-2.025
X6.6Y-2.125
X6.7Y-2.025
X6.7Y-2.125
X6.8Y-2.025
X6.8Y-2.125
X4.9Y-2.85
X4.9Y-2.95
X5.2Y-2.475
X5.2Y-2.575
X5.3Y-2.475
X5.3Y-2.575
X5.4Y-2.475
X5.4Y-2.575
X5.5Y-2.475
X5.5Y-2.575
X5.6Y-2.475
X5.6Y-2.575
X5.7Y-2.475
X5.7Y-2.575
X5.8Y-2.475
X5.8Y-2.575
X5.9Y-2.475
X5.9Y-2.575
X6.0Y-2.475
X6.0Y-2.575
X6.1Y-2.475
X6.1Y-2.575
X6.2Y-2.475
X6.2Y-2.575
X6.3Y-2.475
X6.3Y-2.575
X6.4Y-2.475
X6.4Y-2.575
X6.5Y-2.475
X6.5Y-2.575
X6.6Y-2.475
X6.6Y-2.575
X6.7Y-2.475
X6.7Y-2.575
X6.8Y-2.475
X6.8Y-2.575
X4.5Y-5.15
X4.5Y-5.25
X4.6Y-5.15
X4.6Y-5.25
X4.7Y-5.15
X4.7Y-5.25
X4.8Y-5.15
X4.8Y-5.25
X4.9Y-5.15
X4.9Y-5.25
X5.0Y-5.15
X5.0Y-5.25
X3.0Y-2.85
X3.0Y-2.95
T7
X7.894Y-3.696
X7.894Y-3.804
X7.894Y-3.912
X7.894Y-4.02
X7.894Y-4.128
X8.006Y-3.75
X8.006Y-3.858
X8.006Y-3.967
X8.006Y-4.074
T8
X7.95Y-3.4201
X7.95Y-4.4039
T9
X8.115Y-5.425
X8.115Y-3.2
T0
M30
