%TF.GenerationSoftware,KiCad,Pcbnew,(5.1.8)-1*%
%TF.CreationDate,2021-12-03T10:01:59-08:00*%
%TF.ProjectId,isa_monster_fdc,6973615f-6d6f-46e7-9374-65725f666463,1.0*%
%TF.SameCoordinates,Original*%
%TF.FileFunction,Soldermask,Top*%
%TF.FilePolarity,Negative*%
%FSLAX46Y46*%
G04 Gerber Fmt 4.6, Leading zero omitted, Abs format (unit mm)*
G04 Created by KiCad (PCBNEW (5.1.8)-1) date 2021-12-03 10:01:59*
%MOMM*%
%LPD*%
G01*
G04 APERTURE LIST*
%ADD10C,1.524000*%
%ADD11R,1.524000X1.524000*%
%ADD12C,1.397000*%
%ADD13R,1.397000X1.397000*%
%ADD14C,4.048760*%
%ADD15R,1.490980X1.490980*%
%ADD16C,1.490980*%
%ADD17C,0.800000*%
%ADD18C,6.400000*%
%ADD19C,0.254000*%
%ADD20C,0.150000*%
G04 APERTURE END LIST*
D10*
%TO.C,J2*%
X167640000Y-65405000D03*
X172720000Y-62865000D03*
X165100000Y-62865000D03*
X170180000Y-65405000D03*
X172720000Y-65405000D03*
X167640000Y-62865000D03*
X165100000Y-65405000D03*
X170180000Y-62865000D03*
X162560000Y-62865000D03*
X162560000Y-65405000D03*
X160020000Y-62865000D03*
X160020000Y-65405000D03*
X157480000Y-62865000D03*
X157480000Y-65405000D03*
X154940000Y-62865000D03*
X154940000Y-65405000D03*
X152400000Y-62865000D03*
X152400000Y-65405000D03*
X149860000Y-62865000D03*
X149860000Y-65405000D03*
X147320000Y-62865000D03*
X147320000Y-65405000D03*
X144780000Y-62865000D03*
X144780000Y-65405000D03*
X142240000Y-62865000D03*
X142240000Y-65405000D03*
X139700000Y-62865000D03*
X139700000Y-65405000D03*
X137160000Y-62865000D03*
X137160000Y-65405000D03*
X134620000Y-62865000D03*
X134620000Y-65405000D03*
X132080000Y-62865000D03*
D11*
X132080000Y-65405000D03*
%TD*%
D10*
%TO.C,J4*%
X114300000Y-65405000D03*
X119380000Y-62865000D03*
X111760000Y-62865000D03*
X116840000Y-65405000D03*
X119380000Y-65405000D03*
X114300000Y-62865000D03*
X111760000Y-65405000D03*
X116840000Y-62865000D03*
X109220000Y-62865000D03*
X109220000Y-65405000D03*
X106680000Y-62865000D03*
X106680000Y-65405000D03*
X104140000Y-62865000D03*
X104140000Y-65405000D03*
X101600000Y-62865000D03*
X101600000Y-65405000D03*
X99060000Y-62865000D03*
X99060000Y-65405000D03*
X96520000Y-62865000D03*
X96520000Y-65405000D03*
X93980000Y-62865000D03*
X93980000Y-65405000D03*
X91440000Y-62865000D03*
X91440000Y-65405000D03*
X88900000Y-62865000D03*
X88900000Y-65405000D03*
X86360000Y-62865000D03*
X86360000Y-65405000D03*
X83820000Y-62865000D03*
X83820000Y-65405000D03*
X81280000Y-62865000D03*
X81280000Y-65405000D03*
X78740000Y-62865000D03*
D11*
X78740000Y-65405000D03*
%TD*%
D10*
%TO.C,J1*%
X167640000Y-53975000D03*
X172720000Y-51435000D03*
X165100000Y-51435000D03*
X170180000Y-53975000D03*
X172720000Y-53975000D03*
X167640000Y-51435000D03*
X165100000Y-53975000D03*
X170180000Y-51435000D03*
X162560000Y-51435000D03*
X162560000Y-53975000D03*
X160020000Y-51435000D03*
X160020000Y-53975000D03*
X157480000Y-51435000D03*
X157480000Y-53975000D03*
X154940000Y-51435000D03*
X154940000Y-53975000D03*
X152400000Y-51435000D03*
X152400000Y-53975000D03*
X149860000Y-51435000D03*
X149860000Y-53975000D03*
X147320000Y-51435000D03*
X147320000Y-53975000D03*
X144780000Y-51435000D03*
X144780000Y-53975000D03*
X142240000Y-51435000D03*
X142240000Y-53975000D03*
X139700000Y-51435000D03*
X139700000Y-53975000D03*
X137160000Y-51435000D03*
X137160000Y-53975000D03*
X134620000Y-51435000D03*
X134620000Y-53975000D03*
X132080000Y-51435000D03*
D11*
X132080000Y-53975000D03*
%TD*%
D10*
%TO.C,J3*%
X114300000Y-53975000D03*
X119380000Y-51435000D03*
X111760000Y-51435000D03*
X116840000Y-53975000D03*
X119380000Y-53975000D03*
X114300000Y-51435000D03*
X111760000Y-53975000D03*
X116840000Y-51435000D03*
X109220000Y-51435000D03*
X109220000Y-53975000D03*
X106680000Y-51435000D03*
X106680000Y-53975000D03*
X104140000Y-51435000D03*
X104140000Y-53975000D03*
X101600000Y-51435000D03*
X101600000Y-53975000D03*
X99060000Y-51435000D03*
X99060000Y-53975000D03*
X96520000Y-51435000D03*
X96520000Y-53975000D03*
X93980000Y-51435000D03*
X93980000Y-53975000D03*
X91440000Y-51435000D03*
X91440000Y-53975000D03*
X88900000Y-51435000D03*
X88900000Y-53975000D03*
X86360000Y-51435000D03*
X86360000Y-53975000D03*
X83820000Y-51435000D03*
X83820000Y-53975000D03*
X81280000Y-51435000D03*
X81280000Y-53975000D03*
X78740000Y-51435000D03*
D11*
X78740000Y-53975000D03*
%TD*%
D12*
%TO.C,U3*%
X175260000Y-80010000D03*
X177800000Y-77470000D03*
X175260000Y-77470000D03*
X177800000Y-74930000D03*
X175260000Y-74930000D03*
X177800000Y-72390000D03*
X180340000Y-74930000D03*
X180340000Y-72390000D03*
X182880000Y-74930000D03*
X182880000Y-72390000D03*
X185420000Y-74930000D03*
X185420000Y-72390000D03*
X187960000Y-74930000D03*
X187960000Y-72390000D03*
X190500000Y-74930000D03*
X190500000Y-72390000D03*
X193040000Y-74930000D03*
X190500000Y-77470000D03*
X193040000Y-77470000D03*
X190500000Y-80010000D03*
X193040000Y-80010000D03*
X190500000Y-82550000D03*
X193040000Y-82550000D03*
X190500000Y-85090000D03*
X193040000Y-85090000D03*
X190500000Y-87630000D03*
X193040000Y-87630000D03*
X190500000Y-90170000D03*
X187960000Y-87630000D03*
X187960000Y-90170000D03*
X185420000Y-87630000D03*
X185420000Y-90170000D03*
X182880000Y-87630000D03*
X182880000Y-90170000D03*
X180340000Y-87630000D03*
X180340000Y-90170000D03*
X177800000Y-87630000D03*
X177800000Y-90170000D03*
X175260000Y-87630000D03*
X177800000Y-85090000D03*
X175260000Y-85090000D03*
X177800000Y-82550000D03*
X175260000Y-82550000D03*
D13*
X177800000Y-80010000D03*
%TD*%
D12*
%TO.C,X1*%
X182880000Y-57150000D03*
X190500000Y-57150000D03*
X190500000Y-64770000D03*
D13*
X182880000Y-64770000D03*
%TD*%
D12*
%TO.C,X2*%
X198120000Y-57150000D03*
X205740000Y-57150000D03*
X205740000Y-64770000D03*
D13*
X198120000Y-64770000D03*
%TD*%
D10*
%TO.C,J5*%
X203352400Y-103479600D03*
X203352400Y-100761800D03*
X203352400Y-97993200D03*
X203352400Y-95250000D03*
X200507600Y-93878400D03*
X200507600Y-96621600D03*
X200507600Y-99364800D03*
X200507600Y-102108000D03*
D11*
X200507600Y-104851200D03*
D14*
X201930000Y-86870540D03*
X201930000Y-111859060D03*
%TD*%
D12*
%TO.C,U1*%
X137160000Y-82550000D03*
X134620000Y-82550000D03*
X137160000Y-80010000D03*
X134620000Y-80010000D03*
X137160000Y-77470000D03*
X134620000Y-77470000D03*
X137160000Y-74930000D03*
X134620000Y-74930000D03*
X137160000Y-72390000D03*
X139700000Y-74930000D03*
X139700000Y-72390000D03*
X142240000Y-74930000D03*
X142240000Y-72390000D03*
X144780000Y-74930000D03*
X144780000Y-72390000D03*
X147320000Y-74930000D03*
X147320000Y-72390000D03*
X149860000Y-74930000D03*
X149860000Y-72390000D03*
X152400000Y-74930000D03*
X152400000Y-72390000D03*
X154940000Y-74930000D03*
X154940000Y-72390000D03*
X157480000Y-74930000D03*
X157480000Y-72390000D03*
X160020000Y-74930000D03*
X157480000Y-77470000D03*
X160020000Y-77470000D03*
X157480000Y-80010000D03*
X160020000Y-80010000D03*
X157480000Y-82550000D03*
X160020000Y-82550000D03*
X157480000Y-85090000D03*
X160020000Y-85090000D03*
X157480000Y-87630000D03*
X160020000Y-87630000D03*
X157480000Y-90170000D03*
X160020000Y-90170000D03*
X157480000Y-92710000D03*
X160020000Y-92710000D03*
X157480000Y-95250000D03*
X160020000Y-95250000D03*
X157480000Y-97790000D03*
X154940000Y-95250000D03*
X154940000Y-97790000D03*
X152400000Y-95250000D03*
X152400000Y-97790000D03*
X149860000Y-95250000D03*
X149860000Y-97790000D03*
X147320000Y-95250000D03*
X147320000Y-97790000D03*
X144780000Y-95250000D03*
X144780000Y-97790000D03*
X142240000Y-95250000D03*
X142240000Y-97790000D03*
X139700000Y-95250000D03*
X139700000Y-97790000D03*
X137160000Y-95250000D03*
X137160000Y-97790000D03*
X134620000Y-95250000D03*
X137160000Y-92710000D03*
X134620000Y-92710000D03*
X137160000Y-90170000D03*
X134620000Y-90170000D03*
X137160000Y-87630000D03*
X134620000Y-87630000D03*
X137160000Y-85090000D03*
D13*
X134620000Y-85090000D03*
%TD*%
D12*
%TO.C,U2*%
X88900000Y-82550000D03*
X86360000Y-82550000D03*
X88900000Y-80010000D03*
X86360000Y-80010000D03*
X88900000Y-77470000D03*
X86360000Y-77470000D03*
X88900000Y-74930000D03*
X86360000Y-74930000D03*
X88900000Y-72390000D03*
X91440000Y-74930000D03*
X91440000Y-72390000D03*
X93980000Y-74930000D03*
X93980000Y-72390000D03*
X96520000Y-74930000D03*
X96520000Y-72390000D03*
X99060000Y-74930000D03*
X99060000Y-72390000D03*
X101600000Y-74930000D03*
X101600000Y-72390000D03*
X104140000Y-74930000D03*
X104140000Y-72390000D03*
X106680000Y-74930000D03*
X106680000Y-72390000D03*
X109220000Y-74930000D03*
X109220000Y-72390000D03*
X111760000Y-74930000D03*
X109220000Y-77470000D03*
X111760000Y-77470000D03*
X109220000Y-80010000D03*
X111760000Y-80010000D03*
X109220000Y-82550000D03*
X111760000Y-82550000D03*
X109220000Y-85090000D03*
X111760000Y-85090000D03*
X109220000Y-87630000D03*
X111760000Y-87630000D03*
X109220000Y-90170000D03*
X111760000Y-90170000D03*
X109220000Y-92710000D03*
X111760000Y-92710000D03*
X109220000Y-95250000D03*
X111760000Y-95250000D03*
X109220000Y-97790000D03*
X106680000Y-95250000D03*
X106680000Y-97790000D03*
X104140000Y-95250000D03*
X104140000Y-97790000D03*
X101600000Y-95250000D03*
X101600000Y-97790000D03*
X99060000Y-95250000D03*
X99060000Y-97790000D03*
X96520000Y-95250000D03*
X96520000Y-97790000D03*
X93980000Y-95250000D03*
X93980000Y-97790000D03*
X91440000Y-95250000D03*
X91440000Y-97790000D03*
X88900000Y-95250000D03*
X88900000Y-97790000D03*
X86360000Y-95250000D03*
X88900000Y-92710000D03*
X86360000Y-92710000D03*
X88900000Y-90170000D03*
X86360000Y-90170000D03*
X88900000Y-87630000D03*
X86360000Y-87630000D03*
X88900000Y-85090000D03*
D13*
X86360000Y-85090000D03*
%TD*%
%TO.C,U5*%
X142240000Y-123190000D03*
D12*
X144780000Y-123190000D03*
X147320000Y-123190000D03*
X149860000Y-123190000D03*
X152400000Y-123190000D03*
X154940000Y-123190000D03*
X157480000Y-123190000D03*
X160020000Y-123190000D03*
X162560000Y-123190000D03*
X165100000Y-123190000D03*
X167640000Y-123190000D03*
X170180000Y-123190000D03*
X172720000Y-123190000D03*
X175260000Y-123190000D03*
X177800000Y-123190000D03*
X180340000Y-123190000D03*
X180340000Y-107950000D03*
X177800000Y-107950000D03*
X175260000Y-107950000D03*
X172720000Y-107950000D03*
X170180000Y-107950000D03*
X167640000Y-107950000D03*
X165100000Y-107950000D03*
X162560000Y-107950000D03*
X160020000Y-107950000D03*
X157480000Y-107950000D03*
X154940000Y-107950000D03*
X152400000Y-107950000D03*
X149860000Y-107950000D03*
X147320000Y-107950000D03*
X144780000Y-107950000D03*
X142240000Y-107950000D03*
%TD*%
D13*
%TO.C,U8*%
X109220000Y-113030000D03*
D12*
X111760000Y-113030000D03*
X114300000Y-113030000D03*
X116840000Y-113030000D03*
X119380000Y-113030000D03*
X121920000Y-113030000D03*
X124460000Y-113030000D03*
X127000000Y-113030000D03*
X127000000Y-105410000D03*
X124460000Y-105410000D03*
X121920000Y-105410000D03*
X119380000Y-105410000D03*
X116840000Y-105410000D03*
X114300000Y-105410000D03*
X111760000Y-105410000D03*
X109220000Y-105410000D03*
%TD*%
D13*
%TO.C,U7*%
X109220000Y-123190000D03*
D12*
X111760000Y-123190000D03*
X114300000Y-123190000D03*
X116840000Y-123190000D03*
X119380000Y-123190000D03*
X121920000Y-123190000D03*
X124460000Y-123190000D03*
X127000000Y-123190000D03*
X129540000Y-123190000D03*
X132080000Y-123190000D03*
X132080000Y-115570000D03*
X129540000Y-115570000D03*
X127000000Y-115570000D03*
X124460000Y-115570000D03*
X121920000Y-115570000D03*
X119380000Y-115570000D03*
X116840000Y-115570000D03*
X114300000Y-115570000D03*
X111760000Y-115570000D03*
X109220000Y-115570000D03*
%TD*%
D13*
%TO.C,U10*%
X81280000Y-113030000D03*
D12*
X83820000Y-113030000D03*
X86360000Y-113030000D03*
X88900000Y-113030000D03*
X91440000Y-113030000D03*
X93980000Y-113030000D03*
X96520000Y-113030000D03*
X99060000Y-113030000D03*
X99060000Y-105410000D03*
X96520000Y-105410000D03*
X93980000Y-105410000D03*
X91440000Y-105410000D03*
X88900000Y-105410000D03*
X86360000Y-105410000D03*
X83820000Y-105410000D03*
X81280000Y-105410000D03*
%TD*%
%TO.C,BUS1*%
G36*
G01*
X108331000Y-149352000D02*
X108331000Y-142113000D01*
G75*
G02*
X108775500Y-141668500I444500J0D01*
G01*
X109664500Y-141668500D01*
G75*
G02*
X110109000Y-142113000I0J-444500D01*
G01*
X110109000Y-149352000D01*
G75*
G02*
X109664500Y-149796500I-444500J0D01*
G01*
X108775500Y-149796500D01*
G75*
G02*
X108331000Y-149352000I0J444500D01*
G01*
G37*
G36*
G01*
X110871000Y-149352000D02*
X110871000Y-142113000D01*
G75*
G02*
X111315500Y-141668500I444500J0D01*
G01*
X112204500Y-141668500D01*
G75*
G02*
X112649000Y-142113000I0J-444500D01*
G01*
X112649000Y-149352000D01*
G75*
G02*
X112204500Y-149796500I-444500J0D01*
G01*
X111315500Y-149796500D01*
G75*
G02*
X110871000Y-149352000I0J444500D01*
G01*
G37*
G36*
G01*
X113411000Y-149352000D02*
X113411000Y-142113000D01*
G75*
G02*
X113855500Y-141668500I444500J0D01*
G01*
X114744500Y-141668500D01*
G75*
G02*
X115189000Y-142113000I0J-444500D01*
G01*
X115189000Y-149352000D01*
G75*
G02*
X114744500Y-149796500I-444500J0D01*
G01*
X113855500Y-149796500D01*
G75*
G02*
X113411000Y-149352000I0J444500D01*
G01*
G37*
G36*
G01*
X115951000Y-149352000D02*
X115951000Y-142113000D01*
G75*
G02*
X116395500Y-141668500I444500J0D01*
G01*
X117284500Y-141668500D01*
G75*
G02*
X117729000Y-142113000I0J-444500D01*
G01*
X117729000Y-149352000D01*
G75*
G02*
X117284500Y-149796500I-444500J0D01*
G01*
X116395500Y-149796500D01*
G75*
G02*
X115951000Y-149352000I0J444500D01*
G01*
G37*
G36*
G01*
X118491000Y-149352000D02*
X118491000Y-142113000D01*
G75*
G02*
X118935500Y-141668500I444500J0D01*
G01*
X119824500Y-141668500D01*
G75*
G02*
X120269000Y-142113000I0J-444500D01*
G01*
X120269000Y-149352000D01*
G75*
G02*
X119824500Y-149796500I-444500J0D01*
G01*
X118935500Y-149796500D01*
G75*
G02*
X118491000Y-149352000I0J444500D01*
G01*
G37*
G36*
G01*
X121031000Y-149352000D02*
X121031000Y-142113000D01*
G75*
G02*
X121475500Y-141668500I444500J0D01*
G01*
X122364500Y-141668500D01*
G75*
G02*
X122809000Y-142113000I0J-444500D01*
G01*
X122809000Y-149352000D01*
G75*
G02*
X122364500Y-149796500I-444500J0D01*
G01*
X121475500Y-149796500D01*
G75*
G02*
X121031000Y-149352000I0J444500D01*
G01*
G37*
G36*
G01*
X123571000Y-149352000D02*
X123571000Y-142113000D01*
G75*
G02*
X124015500Y-141668500I444500J0D01*
G01*
X124904500Y-141668500D01*
G75*
G02*
X125349000Y-142113000I0J-444500D01*
G01*
X125349000Y-149352000D01*
G75*
G02*
X124904500Y-149796500I-444500J0D01*
G01*
X124015500Y-149796500D01*
G75*
G02*
X123571000Y-149352000I0J444500D01*
G01*
G37*
G36*
G01*
X126111000Y-149352000D02*
X126111000Y-142113000D01*
G75*
G02*
X126555500Y-141668500I444500J0D01*
G01*
X127444500Y-141668500D01*
G75*
G02*
X127889000Y-142113000I0J-444500D01*
G01*
X127889000Y-149352000D01*
G75*
G02*
X127444500Y-149796500I-444500J0D01*
G01*
X126555500Y-149796500D01*
G75*
G02*
X126111000Y-149352000I0J444500D01*
G01*
G37*
G36*
G01*
X128651000Y-149352000D02*
X128651000Y-142113000D01*
G75*
G02*
X129095500Y-141668500I444500J0D01*
G01*
X129984500Y-141668500D01*
G75*
G02*
X130429000Y-142113000I0J-444500D01*
G01*
X130429000Y-149352000D01*
G75*
G02*
X129984500Y-149796500I-444500J0D01*
G01*
X129095500Y-149796500D01*
G75*
G02*
X128651000Y-149352000I0J444500D01*
G01*
G37*
G36*
G01*
X131191000Y-149352000D02*
X131191000Y-142113000D01*
G75*
G02*
X131635500Y-141668500I444500J0D01*
G01*
X132524500Y-141668500D01*
G75*
G02*
X132969000Y-142113000I0J-444500D01*
G01*
X132969000Y-149352000D01*
G75*
G02*
X132524500Y-149796500I-444500J0D01*
G01*
X131635500Y-149796500D01*
G75*
G02*
X131191000Y-149352000I0J444500D01*
G01*
G37*
G36*
G01*
X133731000Y-149352000D02*
X133731000Y-142113000D01*
G75*
G02*
X134175500Y-141668500I444500J0D01*
G01*
X135064500Y-141668500D01*
G75*
G02*
X135509000Y-142113000I0J-444500D01*
G01*
X135509000Y-149352000D01*
G75*
G02*
X135064500Y-149796500I-444500J0D01*
G01*
X134175500Y-149796500D01*
G75*
G02*
X133731000Y-149352000I0J444500D01*
G01*
G37*
G36*
G01*
X136271000Y-149352000D02*
X136271000Y-142113000D01*
G75*
G02*
X136715500Y-141668500I444500J0D01*
G01*
X137604500Y-141668500D01*
G75*
G02*
X138049000Y-142113000I0J-444500D01*
G01*
X138049000Y-149352000D01*
G75*
G02*
X137604500Y-149796500I-444500J0D01*
G01*
X136715500Y-149796500D01*
G75*
G02*
X136271000Y-149352000I0J444500D01*
G01*
G37*
G36*
G01*
X138811000Y-149352000D02*
X138811000Y-142113000D01*
G75*
G02*
X139255500Y-141668500I444500J0D01*
G01*
X140144500Y-141668500D01*
G75*
G02*
X140589000Y-142113000I0J-444500D01*
G01*
X140589000Y-149352000D01*
G75*
G02*
X140144500Y-149796500I-444500J0D01*
G01*
X139255500Y-149796500D01*
G75*
G02*
X138811000Y-149352000I0J444500D01*
G01*
G37*
G36*
G01*
X141351000Y-149352000D02*
X141351000Y-142113000D01*
G75*
G02*
X141795500Y-141668500I444500J0D01*
G01*
X142684500Y-141668500D01*
G75*
G02*
X143129000Y-142113000I0J-444500D01*
G01*
X143129000Y-149352000D01*
G75*
G02*
X142684500Y-149796500I-444500J0D01*
G01*
X141795500Y-149796500D01*
G75*
G02*
X141351000Y-149352000I0J444500D01*
G01*
G37*
G36*
G01*
X143891000Y-149352000D02*
X143891000Y-142113000D01*
G75*
G02*
X144335500Y-141668500I444500J0D01*
G01*
X145224500Y-141668500D01*
G75*
G02*
X145669000Y-142113000I0J-444500D01*
G01*
X145669000Y-149352000D01*
G75*
G02*
X145224500Y-149796500I-444500J0D01*
G01*
X144335500Y-149796500D01*
G75*
G02*
X143891000Y-149352000I0J444500D01*
G01*
G37*
G36*
G01*
X146431000Y-149352000D02*
X146431000Y-142113000D01*
G75*
G02*
X146875500Y-141668500I444500J0D01*
G01*
X147764500Y-141668500D01*
G75*
G02*
X148209000Y-142113000I0J-444500D01*
G01*
X148209000Y-149352000D01*
G75*
G02*
X147764500Y-149796500I-444500J0D01*
G01*
X146875500Y-149796500D01*
G75*
G02*
X146431000Y-149352000I0J444500D01*
G01*
G37*
G36*
G01*
X148971000Y-149352000D02*
X148971000Y-142113000D01*
G75*
G02*
X149415500Y-141668500I444500J0D01*
G01*
X150304500Y-141668500D01*
G75*
G02*
X150749000Y-142113000I0J-444500D01*
G01*
X150749000Y-149352000D01*
G75*
G02*
X150304500Y-149796500I-444500J0D01*
G01*
X149415500Y-149796500D01*
G75*
G02*
X148971000Y-149352000I0J444500D01*
G01*
G37*
G36*
G01*
X151511000Y-149352000D02*
X151511000Y-142113000D01*
G75*
G02*
X151955500Y-141668500I444500J0D01*
G01*
X152844500Y-141668500D01*
G75*
G02*
X153289000Y-142113000I0J-444500D01*
G01*
X153289000Y-149352000D01*
G75*
G02*
X152844500Y-149796500I-444500J0D01*
G01*
X151955500Y-149796500D01*
G75*
G02*
X151511000Y-149352000I0J444500D01*
G01*
G37*
G36*
G01*
X154051000Y-149352000D02*
X154051000Y-142113000D01*
G75*
G02*
X154495500Y-141668500I444500J0D01*
G01*
X155384500Y-141668500D01*
G75*
G02*
X155829000Y-142113000I0J-444500D01*
G01*
X155829000Y-149352000D01*
G75*
G02*
X155384500Y-149796500I-444500J0D01*
G01*
X154495500Y-149796500D01*
G75*
G02*
X154051000Y-149352000I0J444500D01*
G01*
G37*
G36*
G01*
X156591000Y-149352000D02*
X156591000Y-142113000D01*
G75*
G02*
X157035500Y-141668500I444500J0D01*
G01*
X157924500Y-141668500D01*
G75*
G02*
X158369000Y-142113000I0J-444500D01*
G01*
X158369000Y-149352000D01*
G75*
G02*
X157924500Y-149796500I-444500J0D01*
G01*
X157035500Y-149796500D01*
G75*
G02*
X156591000Y-149352000I0J444500D01*
G01*
G37*
G36*
G01*
X159131000Y-149352000D02*
X159131000Y-142113000D01*
G75*
G02*
X159575500Y-141668500I444500J0D01*
G01*
X160464500Y-141668500D01*
G75*
G02*
X160909000Y-142113000I0J-444500D01*
G01*
X160909000Y-149352000D01*
G75*
G02*
X160464500Y-149796500I-444500J0D01*
G01*
X159575500Y-149796500D01*
G75*
G02*
X159131000Y-149352000I0J444500D01*
G01*
G37*
G36*
G01*
X161671000Y-149352000D02*
X161671000Y-142113000D01*
G75*
G02*
X162115500Y-141668500I444500J0D01*
G01*
X163004500Y-141668500D01*
G75*
G02*
X163449000Y-142113000I0J-444500D01*
G01*
X163449000Y-149352000D01*
G75*
G02*
X163004500Y-149796500I-444500J0D01*
G01*
X162115500Y-149796500D01*
G75*
G02*
X161671000Y-149352000I0J444500D01*
G01*
G37*
G36*
G01*
X164211000Y-149352000D02*
X164211000Y-142113000D01*
G75*
G02*
X164655500Y-141668500I444500J0D01*
G01*
X165544500Y-141668500D01*
G75*
G02*
X165989000Y-142113000I0J-444500D01*
G01*
X165989000Y-149352000D01*
G75*
G02*
X165544500Y-149796500I-444500J0D01*
G01*
X164655500Y-149796500D01*
G75*
G02*
X164211000Y-149352000I0J444500D01*
G01*
G37*
G36*
G01*
X166751000Y-149352000D02*
X166751000Y-142113000D01*
G75*
G02*
X167195500Y-141668500I444500J0D01*
G01*
X168084500Y-141668500D01*
G75*
G02*
X168529000Y-142113000I0J-444500D01*
G01*
X168529000Y-149352000D01*
G75*
G02*
X168084500Y-149796500I-444500J0D01*
G01*
X167195500Y-149796500D01*
G75*
G02*
X166751000Y-149352000I0J444500D01*
G01*
G37*
G36*
G01*
X169291000Y-149352000D02*
X169291000Y-142113000D01*
G75*
G02*
X169735500Y-141668500I444500J0D01*
G01*
X170624500Y-141668500D01*
G75*
G02*
X171069000Y-142113000I0J-444500D01*
G01*
X171069000Y-149352000D01*
G75*
G02*
X170624500Y-149796500I-444500J0D01*
G01*
X169735500Y-149796500D01*
G75*
G02*
X169291000Y-149352000I0J444500D01*
G01*
G37*
G36*
G01*
X171831000Y-149352000D02*
X171831000Y-142113000D01*
G75*
G02*
X172275500Y-141668500I444500J0D01*
G01*
X173164500Y-141668500D01*
G75*
G02*
X173609000Y-142113000I0J-444500D01*
G01*
X173609000Y-149352000D01*
G75*
G02*
X173164500Y-149796500I-444500J0D01*
G01*
X172275500Y-149796500D01*
G75*
G02*
X171831000Y-149352000I0J444500D01*
G01*
G37*
G36*
G01*
X174371000Y-149352000D02*
X174371000Y-142113000D01*
G75*
G02*
X174815500Y-141668500I444500J0D01*
G01*
X175704500Y-141668500D01*
G75*
G02*
X176149000Y-142113000I0J-444500D01*
G01*
X176149000Y-149352000D01*
G75*
G02*
X175704500Y-149796500I-444500J0D01*
G01*
X174815500Y-149796500D01*
G75*
G02*
X174371000Y-149352000I0J444500D01*
G01*
G37*
G36*
G01*
X176911000Y-149352000D02*
X176911000Y-142113000D01*
G75*
G02*
X177355500Y-141668500I444500J0D01*
G01*
X178244500Y-141668500D01*
G75*
G02*
X178689000Y-142113000I0J-444500D01*
G01*
X178689000Y-149352000D01*
G75*
G02*
X178244500Y-149796500I-444500J0D01*
G01*
X177355500Y-149796500D01*
G75*
G02*
X176911000Y-149352000I0J444500D01*
G01*
G37*
G36*
G01*
X179451000Y-149352000D02*
X179451000Y-142113000D01*
G75*
G02*
X179895500Y-141668500I444500J0D01*
G01*
X180784500Y-141668500D01*
G75*
G02*
X181229000Y-142113000I0J-444500D01*
G01*
X181229000Y-149352000D01*
G75*
G02*
X180784500Y-149796500I-444500J0D01*
G01*
X179895500Y-149796500D01*
G75*
G02*
X179451000Y-149352000I0J444500D01*
G01*
G37*
G36*
G01*
X181991000Y-149352000D02*
X181991000Y-142113000D01*
G75*
G02*
X182435500Y-141668500I444500J0D01*
G01*
X183324500Y-141668500D01*
G75*
G02*
X183769000Y-142113000I0J-444500D01*
G01*
X183769000Y-149352000D01*
G75*
G02*
X183324500Y-149796500I-444500J0D01*
G01*
X182435500Y-149796500D01*
G75*
G02*
X181991000Y-149352000I0J444500D01*
G01*
G37*
G36*
G01*
X184531000Y-149352000D02*
X184531000Y-142113000D01*
G75*
G02*
X184975500Y-141668500I444500J0D01*
G01*
X185864500Y-141668500D01*
G75*
G02*
X186309000Y-142113000I0J-444500D01*
G01*
X186309000Y-149352000D01*
G75*
G02*
X185864500Y-149796500I-444500J0D01*
G01*
X184975500Y-149796500D01*
G75*
G02*
X184531000Y-149352000I0J444500D01*
G01*
G37*
%TD*%
D15*
%TO.C,C20*%
X73680000Y-82550000D03*
D16*
X76180000Y-82550000D03*
%TD*%
D12*
%TO.C,RN2*%
X116840000Y-58420000D03*
X114300000Y-58420000D03*
X111760000Y-58420000D03*
X109220000Y-58420000D03*
X106680000Y-58420000D03*
D13*
X104140000Y-58420000D03*
%TD*%
D12*
%TO.C,C1*%
X165100000Y-80010000D03*
X165100000Y-85090000D03*
%TD*%
%TO.C,C2*%
X116840000Y-85090000D03*
X116840000Y-80010000D03*
%TD*%
%TO.C,C3*%
X165100000Y-77470000D03*
X165100000Y-72390000D03*
%TD*%
%TO.C,C4*%
X116840000Y-72390000D03*
X116840000Y-77470000D03*
%TD*%
%TO.C,C5*%
X129540000Y-82550000D03*
X129540000Y-77470000D03*
%TD*%
%TO.C,C6*%
X81280000Y-77470000D03*
X81280000Y-82550000D03*
%TD*%
%TO.C,C7*%
X170180000Y-80010000D03*
X170180000Y-74930000D03*
%TD*%
%TO.C,C8*%
X193040000Y-128270000D03*
X187960000Y-128270000D03*
%TD*%
%TO.C,C9*%
X137160000Y-113030000D03*
X137160000Y-118110000D03*
%TD*%
%TO.C,C10*%
X104140000Y-121920000D03*
X104140000Y-116840000D03*
%TD*%
%TO.C,C11*%
X104140000Y-106680000D03*
X104140000Y-111760000D03*
%TD*%
%TO.C,C12*%
X76200000Y-121920000D03*
X76200000Y-116840000D03*
%TD*%
%TO.C,C13*%
X76200000Y-106680000D03*
X76200000Y-111760000D03*
%TD*%
%TO.C,C14*%
X189230000Y-52070000D03*
X184150000Y-52070000D03*
%TD*%
%TO.C,C15*%
X199390000Y-52070000D03*
X204470000Y-52070000D03*
%TD*%
%TO.C,C16*%
X193040000Y-130810000D03*
X187960000Y-130810000D03*
%TD*%
%TO.C,C17*%
X187960000Y-95250000D03*
X193040000Y-95250000D03*
%TD*%
D16*
%TO.C,C18*%
X190480000Y-135890000D03*
D15*
X187980000Y-135890000D03*
%TD*%
D16*
%TO.C,C19*%
X124440000Y-82550000D03*
D15*
X121940000Y-82550000D03*
%TD*%
D16*
%TO.C,C22*%
X203180000Y-120650000D03*
D15*
X200680000Y-120650000D03*
%TD*%
%TO.C,C23*%
X200680000Y-128270000D03*
D16*
X203180000Y-128270000D03*
%TD*%
D17*
%TO.C,HOLE1*%
X207818056Y-79582944D03*
X206121000Y-78880000D03*
X204423944Y-79582944D03*
X203721000Y-81280000D03*
X204423944Y-82977056D03*
X206121000Y-83680000D03*
X207818056Y-82977056D03*
X208521000Y-81280000D03*
D18*
X206121000Y-81280000D03*
%TD*%
%TO.C,HOLE2*%
X206121000Y-137795000D03*
D17*
X208521000Y-137795000D03*
X207818056Y-139492056D03*
X206121000Y-140195000D03*
X204423944Y-139492056D03*
X203721000Y-137795000D03*
X204423944Y-136097944D03*
X206121000Y-135395000D03*
X207818056Y-136097944D03*
%TD*%
D10*
%TO.C,JP6*%
X121920000Y-72390000D03*
X121920000Y-74930000D03*
%TD*%
%TO.C,JP7*%
X124460000Y-74930000D03*
X124460000Y-72390000D03*
%TD*%
%TO.C,JP8*%
X76200000Y-72390000D03*
X76200000Y-74930000D03*
%TD*%
%TO.C,JP9*%
X78740000Y-74930000D03*
X78740000Y-72390000D03*
%TD*%
D13*
%TO.C,U6*%
X147320000Y-120650000D03*
D12*
X149860000Y-120650000D03*
X152400000Y-120650000D03*
X154940000Y-120650000D03*
X157480000Y-120650000D03*
X160020000Y-120650000D03*
X162560000Y-120650000D03*
X165100000Y-120650000D03*
X167640000Y-120650000D03*
X170180000Y-120650000D03*
X172720000Y-120650000D03*
X175260000Y-120650000D03*
X177800000Y-120650000D03*
X180340000Y-120650000D03*
X180340000Y-105410000D03*
X177800000Y-105410000D03*
X175260000Y-105410000D03*
X172720000Y-105410000D03*
X170180000Y-105410000D03*
X167640000Y-105410000D03*
X165100000Y-105410000D03*
X162560000Y-105410000D03*
X160020000Y-105410000D03*
X157480000Y-105410000D03*
X154940000Y-105410000D03*
X152400000Y-105410000D03*
X149860000Y-105410000D03*
X147320000Y-105410000D03*
%TD*%
%TO.C,U9*%
X81280000Y-115570000D03*
X83820000Y-115570000D03*
X86360000Y-115570000D03*
X88900000Y-115570000D03*
X91440000Y-115570000D03*
X93980000Y-115570000D03*
X96520000Y-115570000D03*
X99060000Y-115570000D03*
X99060000Y-123190000D03*
X96520000Y-123190000D03*
X93980000Y-123190000D03*
X91440000Y-123190000D03*
X88900000Y-123190000D03*
X86360000Y-123190000D03*
X83820000Y-123190000D03*
D13*
X81280000Y-123190000D03*
%TD*%
D10*
%TO.C,JP1*%
X91440000Y-130810000D03*
X91440000Y-133350000D03*
X88900000Y-130810000D03*
X88900000Y-133350000D03*
X86360000Y-130810000D03*
X86360000Y-133350000D03*
X83820000Y-130810000D03*
X83820000Y-133350000D03*
X81280000Y-130810000D03*
X81280000Y-133350000D03*
X78740000Y-130810000D03*
D11*
X78740000Y-133350000D03*
%TD*%
%TO.C,JP2*%
X96520000Y-133350000D03*
D10*
X96520000Y-130810000D03*
X99060000Y-133350000D03*
X99060000Y-130810000D03*
X101600000Y-133350000D03*
X101600000Y-130810000D03*
X104140000Y-133350000D03*
X104140000Y-130810000D03*
X106680000Y-133350000D03*
X106680000Y-130810000D03*
X109220000Y-133350000D03*
X109220000Y-130810000D03*
%TD*%
D11*
%TO.C,JP3*%
X114300000Y-133350000D03*
D10*
X114300000Y-130810000D03*
X116840000Y-133350000D03*
X116840000Y-130810000D03*
X119380000Y-133350000D03*
X119380000Y-130810000D03*
X121920000Y-133350000D03*
X121920000Y-130810000D03*
X124460000Y-133350000D03*
X124460000Y-130810000D03*
X127000000Y-133350000D03*
X127000000Y-130810000D03*
%TD*%
D11*
%TO.C,JP4*%
X99060000Y-128270000D03*
D10*
X101600000Y-128270000D03*
X104140000Y-128270000D03*
X106680000Y-128270000D03*
X109220000Y-128270000D03*
%TD*%
D11*
%TO.C,JP5*%
X132080000Y-133350000D03*
D10*
X132080000Y-130810000D03*
X134620000Y-133350000D03*
X134620000Y-130810000D03*
X137160000Y-133350000D03*
X137160000Y-130810000D03*
X139700000Y-133350000D03*
X139700000Y-130810000D03*
X142240000Y-133350000D03*
X142240000Y-130810000D03*
X144780000Y-133350000D03*
X144780000Y-130810000D03*
X147320000Y-133350000D03*
X147320000Y-130810000D03*
%TD*%
D12*
%TO.C,RN1*%
X170180000Y-58420000D03*
X167640000Y-58420000D03*
X165100000Y-58420000D03*
X162560000Y-58420000D03*
X160020000Y-58420000D03*
D13*
X157480000Y-58420000D03*
%TD*%
%TO.C,RN3*%
X119380000Y-125730000D03*
D12*
X121920000Y-125730000D03*
X124460000Y-125730000D03*
X127000000Y-125730000D03*
X129540000Y-125730000D03*
X132080000Y-125730000D03*
%TD*%
D13*
%TO.C,RN4*%
X81280000Y-125730000D03*
D12*
X83820000Y-125730000D03*
X86360000Y-125730000D03*
X88900000Y-125730000D03*
X91440000Y-125730000D03*
X93980000Y-125730000D03*
%TD*%
D13*
%TO.C,U4*%
X194310000Y-123190000D03*
D12*
X194310000Y-120650000D03*
X194310000Y-118110000D03*
X194310000Y-115570000D03*
X194310000Y-113030000D03*
X194310000Y-110490000D03*
X194310000Y-107950000D03*
X194310000Y-105410000D03*
X194310000Y-102870000D03*
X194310000Y-100330000D03*
X186690000Y-100330000D03*
X186690000Y-102870000D03*
X186690000Y-105410000D03*
X186690000Y-107950000D03*
X186690000Y-110490000D03*
X186690000Y-113030000D03*
X186690000Y-115570000D03*
X186690000Y-118110000D03*
X186690000Y-120650000D03*
X186690000Y-123190000D03*
%TD*%
D19*
X187833000Y-149597139D02*
X187774013Y-149674013D01*
X187697139Y-149733000D01*
X106942861Y-149733000D01*
X106865987Y-149674013D01*
X106807000Y-149597139D01*
X106807000Y-141732000D01*
X187833000Y-141732000D01*
X187833000Y-149597139D01*
D20*
G36*
X187833000Y-149597139D02*
G01*
X187774013Y-149674013D01*
X187697139Y-149733000D01*
X106942861Y-149733000D01*
X106865987Y-149674013D01*
X106807000Y-149597139D01*
X106807000Y-141732000D01*
X187833000Y-141732000D01*
X187833000Y-149597139D01*
G37*
M02*
